<!DOCTYPE svg PUBLIC "-//W3C//DTD SVG 20010904//EN" "http://www.w3.org/TR/2001/REC-SVG-20010904/DTD/svg10.dtd">
<svg version="1.0" xmlns="http://www.w3.org/2000/svg" width="1000px" height="1000px" viewBox="0 0 10000 10000" preserveAspectRatio="xMidYMid meet">
<g id="layer101" fill="#25a8de" stroke="none">
 <path d="M7792 4578 c20 -5 18 -6 -12 -9 -19 -1 -45 -2 -58 -1 -13 0 -20 -3 -16 -9 3 -6 -2 -10 -12 -9 -34 4 -45 0 -38 -11 4 -7 1 -10 -7 -7 -20 8 -59 -31 -52 -50 5 -11 3 -13 -7 -7 -8 5 -11 4 -7 -3 8 -12 -2 -44 -12 -38 -3 2 -6 -27 -6 -64 0 -39 4 -63 8 -57 5 7 6 0 2 -16 -4 -21 -3 -27 6 -21 9 5 10 1 7 -14 -4 -12 -3 -20 2 -17 4 3 11 -2 14 -11 3 -8 2 -12 -4 -9 -6 3 -7 -1 -4 -9 3 -9 10 -14 14 -11 11 7 22 -24 13 -37 -4 -7 -1 -8 7 -3 10 6 12 4 7 -9 -5 -11 -3 -15 5 -10 8 5 9 2 5 -10 -5 -11 -3 -15 5 -10 8 5 9 2 5 -9 -3 -9 -1 -19 5 -23 7 -5 8 -2 4 7 -4 8 0 5 8 -6 9 -11 14 -25 11 -33 -3 -8 0 -10 7 -6 8 5 9 2 5 -9 -3 -9 -1 -19 5 -23 7 -5 8 -2 3 6 -6 9 -4 11 4 6 7 -5 10 -14 7 -22 -3 -7 0 -16 6 -20 7 -5 8 -2 3 6 -6 9 -4 11 4 6 7 -5 10 -14 7 -22 -3 -7 0 -16 6 -20 7 -5 8 -2 3 6 -6 9 -4 11 4 6 7 -5 10 -14 7 -21 -3 -8 3 -19 12 -27 15 -11 16 -11 7 2 -5 9 0 4 13 -10 12 -14 20 -30 18 -37 -3 -6 5 -19 17 -30 l22 -18 -20 25 -20 25 23 -19 c12 -11 21 -25 18 -32 -2 -6 10 -25 27 -40 l32 -29 -30 35 -30 35 33 -30 c18 -16 31 -34 28 -40 -5 -14 174 -194 188 -189 7 3 25 -10 41 -28 l30 -33 -35 30 -35 30 29 -32 c15 -17 34 -29 40 -27 7 3 21 -6 32 -18 l19 -23 -25 20 -25 20 18 -22 c11 -12 24 -20 31 -17 7 3 21 -6 32 -18 l19 -23 -25 20 -25 20 18 -22 c11 -12 24 -19 31 -17 7 3 19 -3 27 -13 13 -17 13 -17 -6 -3 -18 14 -19 14 -7 -2 8 -9 19 -15 27 -12 7 3 16 0 21 -7 5 -8 3 -10 -6 -4 -8 5 -11 4 -6 -3 4 -6 12 -9 19 -7 7 3 23 -5 37 -17 14 -13 19 -18 10 -13 -13 9 -13 8 -2 -7 8 -9 19 -15 27 -12 7 3 16 0 21 -7 4 -8 3 -10 -4 -5 -7 4 -12 5 -12 2 0 -3 10 -10 21 -17 16 -8 20 -8 14 1 -6 9 -2 9 14 1 11 -7 21 -14 21 -17 0 -3 -5 -2 -12 2 -7 4 -8 3 -4 -4 4 -6 13 -9 20 -6 8 3 17 0 22 -7 5 -8 3 -10 -6 -4 -8 5 -11 4 -6 -3 4 -6 12 -9 19 -6 7 2 21 -3 32 -12 11 -8 14 -12 6 -8 -9 4 -12 3 -7 -4 4 -6 14 -8 23 -5 11 4 14 3 9 -5 -4 -7 -2 -10 6 -7 8 3 22 -2 33 -11 11 -8 14 -12 6 -8 -9 4 -12 3 -7 -4 4 -6 14 -8 23 -5 11 4 14 3 9 -5 -5 -8 -1 -10 10 -5 12 4 15 3 10 -5 -5 -8 -1 -10 10 -5 12 4 15 3 10 -5 -5 -8 -1 -10 10 -5 12 4 15 3 10 -5 -5 -8 -1 -10 10 -5 12 4 15 3 10 -5 -4 -7 -2 -10 6 -7 8 3 22 -2 33 -11 11 -8 14 -13 8 -9 -22 11 -14 -4 8 -16 12 -6 19 -7 15 -1 -3 5 23 -2 59 -17 68 -27 81 -41 41 -41 -44 0 -125 23 -119 33 4 6 -1 8 -11 4 -24 -9 -68 2 -59 16 4 7 0 8 -12 3 -21 -8 -208 51 -200 64 3 4 -5 6 -17 2 -13 -3 -19 -1 -15 5 7 11 -22 28 -31 18 -3 -3 1 -5 8 -5 7 0 11 -2 8 -5 -9 -10 -38 7 -31 18 3 6 1 7 -6 3 -16 -10 -53 3 -45 16 5 7 2 8 -5 4 -15 -10 -73 13 -65 25 3 5 -3 6 -12 2 -13 -5 -15 -3 -9 7 5 9 4 11 -4 6 -15 -10 -73 13 -65 25 3 5 -3 6 -12 2 -12 -4 -15 -3 -10 5 5 8 1 10 -10 5 -12 -4 -15 -3 -10 5 5 8 1 10 -10 5 -12 -4 -15 -3 -10 5 4 7 2 10 -6 7 -8 -3 -22 2 -33 11 -11 8 -14 12 -6 8 9 -4 12 -3 7 4 -4 6 -14 8 -23 5 -11 -4 -14 -3 -9 5 4 7 2 10 -6 7 -8 -3 -22 2 -33 11 -11 8 -14 13 -7 9 21 -11 13 4 -9 16 -16 8 -20 8 -14 -1 6 -9 2 -9 -14 -1 -11 7 -21 14 -21 17 0 3 5 2 12 -2 7 -4 8 -3 4 4 -4 6 -12 9 -19 6 -7 -2 -21 3 -32 12 -11 8 -14 12 -6 8 9 -4 12 -3 7 4 -4 6 -13 9 -20 6 -8 -3 -17 0 -22 7 -5 8 -3 10 6 4 8 -5 11 -4 6 3 -4 6 -12 9 -19 7 -7 -3 -23 5 -37 17 -14 13 -19 19 -10 13 13 -9 13 -8 2 7 -8 9 -19 15 -26 12 -7 -3 -19 3 -27 13 -13 17 -13 17 6 3 18 -14 19 -14 7 2 -8 9 -19 15 -26 12 -7 -3 -21 6 -32 18 l-19 23 25 -20 25 -20 -18 22 c-11 12 -24 20 -31 17 -7 -3 -23 8 -36 23 l-25 28 30 -25 30 -25 -24 27 c-13 15 -28 25 -35 22 -15 -6 -200 181 -192 194 3 5 -4 18 -17 28 l-22 19 20 -25 20 -25 -23 19 c-12 11 -21 25 -18 32 3 7 -5 20 -17 31 -22 18 -22 18 -7 -3 8 -11 3 -6 -13 10 -15 17 -25 36 -23 43 3 7 0 15 -6 19 -7 5 -8 2 -3 -6 6 -9 4 -11 -4 -6 -7 5 -10 14 -7 22 3 7 0 16 -6 20 -7 5 -8 2 -3 -6 6 -9 4 -11 -4 -6 -7 5 -10 14 -7 22 3 7 0 16 -6 20 -7 5 -8 2 -4 -7 4 -8 0 -5 -8 6 -9 11 -14 25 -11 33 3 8 0 10 -7 6 -8 -5 -9 -2 -5 9 3 9 1 19 -5 23 -7 4 -8 3 -4 -4 4 -7 5 -12 2 -12 -6 0 -32 47 -46 86 -7 16 -7 23 0 19 6 -3 7 1 4 9 -3 9 -10 14 -14 11 -9 -6 -23 25 -15 33 3 3 5 -1 5 -8 0 -7 2 -11 5 -8 9 9 -7 38 -17 32 -6 -4 -8 1 -4 14 5 16 3 20 -11 18 -11 -2 -17 -10 -15 -21 2 -10 -1 -14 -7 -10 -7 4 -8 0 -4 -11 4 -12 3 -15 -5 -10 -8 5 -10 1 -5 -10 4 -12 3 -15 -5 -10 -8 5 -10 1 -5 -10 5 -13 3 -15 -7 -9 -9 5 -11 4 -6 -3 10 -17 -15 -96 -26 -80 -4 7 -5 -2 -2 -22 4 -27 3 -31 -5 -20 -8 11 -10 7 -5 -20 4 -27 3 -32 -5 -20 -9 11 -10 4 -6 -30 4 -31 3 -39 -4 -25 -6 13 -8 -3 -5 -50 2 -45 0 -58 -4 -35 -4 21 -7 -12 -7 -85 0 -71 3 -108 7 -90 5 19 6 6 4 -35 -3 -45 -1 -59 5 -45 7 15 8 9 4 -20 -2 -23 -1 -34 4 -27 11 17 23 -41 14 -65 -5 -11 -3 -14 6 -8 10 6 11 2 6 -15 -5 -17 -4 -21 6 -15 9 6 11 2 7 -13 -4 -14 -2 -20 5 -15 7 4 8 0 4 -11 -4 -9 -3 -14 2 -11 12 7 24 -31 15 -46 -5 -8 -3 -9 6 -4 10 6 12 4 7 -9 -5 -11 -3 -15 5 -10 8 5 9 2 5 -9 -3 -9 -1 -19 5 -23 7 -4 8 -3 4 4 -4 7 -5 12 -2 12 3 0 10 -10 17 -21 8 -16 8 -20 -1 -14 -9 6 -9 2 -1 -14 7 -11 14 -21 17 -21 3 0 2 6 -1 13 -4 6 3 1 14 -13 11 -14 19 -30 16 -37 -2 -7 1 -15 7 -19 7 -5 8 -2 3 6 -6 9 -4 11 4 6 7 -5 10 -14 7 -21 -2 -7 5 -21 17 -32 l22 -18 -20 25 -20 25 23 -19 c12 -11 21 -25 18 -32 -2 -6 12 -27 32 -45 l37 -34 -35 40 -35 40 38 -35 c20 -19 36 -39 33 -45 -5 -14 44 -64 58 -59 6 2 27 -13 46 -33 l35 -38 -40 35 -40 35 34 -37 c18 -20 39 -34 45 -32 7 3 21 -6 32 -18 l19 -23 -25 20 -25 20 18 -22 c11 -12 24 -19 31 -17 7 3 19 -3 27 -13 13 -17 13 -17 -6 -3 -18 14 -19 14 -7 -2 8 -9 19 -15 27 -12 7 3 16 0 21 -7 5 -8 3 -10 -6 -4 -8 5 -11 4 -6 -3 4 -6 13 -9 20 -6 8 3 17 0 22 -7 5 -8 3 -10 -6 -4 -8 5 -11 4 -6 -3 4 -6 13 -9 20 -6 8 3 17 0 22 -7 5 -8 3 -10 -6 -4 -8 5 -11 4 -6 -3 4 -6 12 -9 19 -6 7 2 21 -3 32 -12 11 -8 14 -13 8 -9 -22 11 -14 -4 8 -16 15 -7 19 -8 15 0 -5 7 -1 9 8 5 9 -3 14 -10 11 -14 -3 -4 2 -11 11 -14 9 -3 12 -2 9 4 -4 6 9 3 29 -6 19 -10 33 -21 31 -25 -3 -4 2 -10 11 -13 8 -3 12 -2 9 4 -3 6 1 7 9 4 9 -3 13 -11 9 -17 -4 -6 0 -8 10 -4 20 8 49 -2 42 -13 -3 -5 5 -6 17 -2 14 3 19 1 14 -6 -5 -8 -1 -10 10 -5 11 4 15 3 11 -4 -5 -7 1 -9 15 -5 15 4 19 2 13 -7 -6 -10 -2 -11 15 -6 16 5 20 4 15 -5 -5 -9 -1 -10 15 -5 17 5 21 4 15 -6 -6 -9 -3 -11 9 -6 25 10 72 -3 54 -14 -8 -6 1 -7 22 -3 27 4 31 3 20 -5 -11 -8 -7 -10 20 -5 27 4 31 3 20 -5 -11 -8 -7 -10 20 -5 27 4 31 3 20 -5 -11 -8 -7 -10 20 -5 27 4 32 3 20 -6 -12 -8 -6 -9 25 -5 30 5 36 4 25 -4 -11 -9 -4 -10 30 -6 34 4 40 3 25 -4 -15 -8 -5 -9 35 -6 40 3 48 2 30 -4 -18 -7 -6 -8 40 -5 44 2 57 1 40 -5 -16 -5 4 -7 60 -5 54 2 70 0 45 -4 -22 -4 73 -7 210 -7 138 0 228 3 200 7 -32 4 -13 6 55 4 67 -2 94 0 75 5 -20 6 -7 7 40 4 49 -2 64 -1 50 6 -14 7 -4 8 35 4 40 -3 50 -2 35 6 -15 7 -9 8 25 4 33 -4 41 -3 30 5 -12 9 -11 10 8 8 22 -3 24 1 27 47 3 37 1 45 -6 30 -6 -14 -8 -5 -4 30 3 38 2 45 -5 30 -8 -15 -9 -8 -6 30 4 36 2 45 -5 30 -7 -15 -8 -6 -5 30 4 36 2 45 -5 30 -7 -15 -8 -8 -4 25 4 34 3 41 -6 30 -8 -11 -9 -6 -5 25 4 30 3 36 -5 25 -8 -11 -9 -4 -4 25 4 31 3 37 -5 25 -9 -12 -10 -7 -6 20 5 27 3 31 -5 20 -8 -11 -9 -7 -5 20 5 27 3 31 -5 20 -8 -11 -9 -7 -5 20 4 21 3 30 -3 22 -11 -17 -23 40 -14 65 4 11 3 14 -6 9 -8 -6 -10 0 -6 21 3 15 2 21 -2 13 -8 -20 -54 115 -46 137 4 10 2 14 -5 9 -13 -8 -26 29 -16 45 5 8 3 9 -5 4 -9 -5 -12 -1 -11 11 4 32 0 45 -9 40 -12 -8 -22 20 -14 41 4 10 2 14 -4 10 -5 -4 -15 5 -22 19 -6 14 -7 23 -1 19 6 -3 7 1 4 9 -3 9 -9 14 -14 11 -4 -2 -12 7 -19 21 -6 14 -7 23 -1 19 6 -3 7 1 4 9 -3 9 -10 14 -14 11 -10 -6 -22 24 -15 35 3 5 0 12 -6 16 -8 5 -10 2 -5 -7 4 -8 0 -5 -8 6 -9 11 -14 25 -11 33 3 8 0 10 -7 6 -8 -5 -9 -2 -5 9 3 9 1 19 -5 23 -7 5 -8 2 -3 -6 6 -9 4 -11 -4 -6 -7 5 -10 14 -7 22 3 7 0 16 -6 20 -7 5 -8 2 -3 -6 6 -9 4 -11 -4 -6 -7 5 -10 14 -7 22 3 7 0 16 -6 20 -7 5 -8 2 -3 -6 6 -9 4 -11 -4 -6 -7 5 -10 14 -7 22 3 7 0 16 -6 20 -7 5 -8 2 -3 -6 6 -9 4 -11 -4 -6 -7 5 -10 14 -7 22 3 7 0 16 -6 20 -7 5 -8 2 -3 -6 6 -9 4 -11 -4 -6 -7 5 -10 14 -7 21 3 8 -3 19 -12 27 -16 12 -16 11 -2 -7 14 -19 14 -19 -3 -6 -10 8 -16 20 -13 27 3 7 -3 18 -12 26 -16 12 -16 11 -2 -7 14 -19 14 -19 -3 -6 -10 8 -16 20 -13 27 2 6 -7 22 -22 35 l-27 24 25 -30 25 -30 -28 24 c-15 14 -26 30 -23 35 5 15 -164 185 -178 180 -7 -3 -23 8 -36 23 l-25 28 30 -25 30 -25 -24 27 c-13 15 -29 24 -35 22 -7 -3 -19 3 -27 13 -13 17 -13 17 6 3 18 -14 19 -14 7 2 -8 9 -19 15 -27 12 -7 -3 -16 0 -21 7 -5 8 -3 10 6 4 8 -5 11 -4 6 3 -4 6 -13 9 -20 6 -8 -3 -17 0 -22 7 -5 8 -3 10 6 4 8 -5 11 -4 6 3 -4 6 -13 9 -20 6 -8 -3 -17 0 -22 7 -5 8 -3 10 6 4 8 -5 11 -4 6 3 -4 6 -12 9 -19 6 -7 -2 -21 3 -32 12 -11 8 -14 12 -6 8 9 -4 12 -3 7 4 -4 6 -14 8 -23 5 -10 -4 -14 -2 -10 4 4 6 0 14 -9 17 -8 3 -12 2 -9 -4 4 -6 -5 -5 -19 1 -14 7 -23 16 -20 20 3 5 -3 6 -12 2 -12 -4 -15 -3 -10 5 5 8 1 10 -10 5 -12 -4 -15 -3 -10 5 5 8 1 10 -10 5 -13 -5 -15 -3 -9 7 5 9 4 11 -4 6 -14 -9 -53 2 -46 14 6 9 -25 23 -33 15 -3 -3 1 -5 8 -5 7 0 11 -2 8 -5 -8 -8 -39 6 -33 15 3 5 -5 6 -17 2 -15 -4 -19 -2 -13 7 6 10 2 11 -15 6 -17 -5 -21 -4 -15 6 6 9 3 11 -9 6 -10 -4 -29 -4 -43 -1 -19 5 -22 9 -11 16 8 6 1 7 -22 3 -27 -5 -31 -4 -20 5 11 8 6 9 -25 5 -29 -4 -35 -3 -20 4 14 7 4 8 -35 5 -32 -2 -45 -1 -32 4 13 4 -26 7 -88 7 -61 0 -101 -3 -88 -7z m-152 -51 c0 -2 -10 -12 -22 -23 l-23 -19 19 23 c18 21 26 27 26 19z m1170 -382 c47 -47 82 -85 80 -85 -3 0 -43 38 -90 85 -47 47 -82 85 -80 85 3 0 43 -38 90 -85z m-805 -475 c49 -49 87 -90 85 -90 -3 0 -46 41 -95 90 -49 50 -87 90 -85 90 3 0 46 -40 95 -90z m-595 -595 c13 -14 21 -25 18 -25 -2 0 -15 11 -28 25 -13 14 -21 25 -18 25 2 0 15 -11 28 -25z"/>
 <path d="M7733 4573 c4 -3 10 -3 14 0 3 4 0 7 -7 7 -7 0 -10 -3 -7 -7z"/>
 <path d="M8143 4543 c4 -3 10 -3 14 0 3 4 0 7 -7 7 -7 0 -10 -3 -7 -7z"/>
 <path d="M8313 4483 c4 -3 10 -3 14 0 3 4 0 7 -7 7 -7 0 -10 -3 -7 -7z"/>
 <path d="M7552 4375 c0 -16 2 -22 5 -12 2 9 2 23 0 30 -3 6 -5 -1 -5 -18z"/>
 <path d="M7120 4190 c0 -7 3 -10 7 -7 3 4 3 10 0 14 -4 3 -7 0 -7 -7z"/>
 <path d="M7250 4180 c0 -7 3 -10 7 -7 3 4 3 10 0 14 -4 3 -7 0 -7 -7z"/>
 <path d="M7110 4160 c0 -7 3 -10 7 -7 3 4 3 10 0 14 -4 3 -7 0 -7 -7z"/>
 <path d="M7385 3950 c3 -5 8 -10 11 -10 3 0 2 5 -1 10 -3 6 -8 10 -11 10 -3 0 -2 -4 1 -10z"/>
 <path d="M7785 3900 c3 -5 8 -10 11 -10 3 0 2 5 -1 10 -3 6 -8 10 -11 10 -3 0 -2 -4 1 -10z"/>
 <path d="M7565 3740 c49 -49 92 -90 95 -90 2 0 -36 41 -85 90 -49 50 -92 90 -95 90 -2 0 36 -40 85 -90z"/>
 <path d="M7090 3570 c0 -7 3 -10 7 -7 3 4 3 10 0 14 -4 3 -7 0 -7 -7z"/>
 <path d="M7865 3490 c3 -5 8 -10 11 -10 3 0 2 5 -1 10 -3 6 -8 10 -11 10 -3 0 -2 -4 1 -10z"/>
 <path d="M7140 3430 c0 -7 3 -10 7 -7 3 4 3 10 0 14 -4 3 -7 0 -7 -7z"/>
 <path d="M9270 3420 c0 -7 3 -10 7 -7 3 4 3 10 0 14 -4 3 -7 0 -7 -7z"/>
 <path d="M8345 3370 c3 -5 8 -10 11 -10 3 0 2 5 -1 10 -3 6 -8 10 -11 10 -3 0 -2 -4 1 -10z"/>
 <path d="M9300 3340 c0 -7 3 -10 7 -7 3 4 3 10 0 14 -4 3 -7 0 -7 -7z"/>
 <path d="M9310 3310 c0 -7 3 -10 7 -7 3 4 3 10 0 14 -4 3 -7 0 -7 -7z"/>
 <path d="M7225 3280 c3 -5 8 -10 11 -10 3 0 2 5 -1 10 -3 6 -8 10 -11 10 -3 0 -2 -4 1 -10z"/>
 <path d="M9320 3280 c0 -7 3 -10 7 -7 3 4 3 10 0 14 -4 3 -7 0 -7 -7z"/>
 <path d="M8243 3273 c4 -3 10 -3 14 0 3 4 0 7 -7 7 -7 0 -10 -3 -7 -7z"/>
 <path d="M8333 3233 c4 -3 10 -3 14 0 3 4 0 7 -7 7 -7 0 -10 -3 -7 -7z"/>
 <path d="M9350 3180 c0 -7 3 -10 7 -7 3 4 3 10 0 14 -4 3 -7 0 -7 -7z"/>
 <path d="M8513 3163 c4 -3 10 -3 14 0 3 4 0 7 -7 7 -7 0 -10 -3 -7 -7z"/>
 <path d="M8543 3153 c4 -3 10 -3 14 0 3 4 0 7 -7 7 -7 0 -10 -3 -7 -7z"/>
 <path d="M8573 3143 c4 -3 10 -3 14 0 3 4 0 7 -7 7 -7 0 -10 -3 -7 -7z"/>
 <path d="M8603 3133 c4 -3 10 -3 14 0 3 4 0 7 -7 7 -7 0 -10 -3 -7 -7z"/>
 <path d="M8633 3123 c4 -3 10 -3 14 0 3 4 0 7 -7 7 -7 0 -10 -3 -7 -7z"/>
 <path d="M8663 3113 c4 -3 10 -3 14 0 3 4 0 7 -7 7 -7 0 -10 -3 -7 -7z"/>
 <path d="M8733 3093 c4 -3 10 -3 14 0 3 4 0 7 -7 7 -7 0 -10 -3 -7 -7z"/>
 <path d="M8113 2653 c4 -3 10 -3 14 0 3 4 0 7 -7 7 -7 0 -10 -3 -7 -7z"/>
 </g>
<g id="layer102" fill="#242627" stroke="none">
 <path d="M5384 7081 c-48 -21 -54 -44 -54 -223 l0 -168 40 0 40 0 0 166 c0 152 1 165 18 162 15 -3 17 -20 20 -166 l2 -162 35 0 35 0 0 169 c0 162 -1 171 -22 196 -25 28 -79 40 -114 26z"/>
 <path d="M5993 7074 c-32 -16 -53 -55 -53 -100 0 -21 5 -24 39 -24 37 0 40 2 43 33 4 40 32 44 36 4 3 -22 -7 -38 -47 -78 -29 -29 -55 -66 -60 -86 -21 -77 17 -136 90 -136 51 0 87 33 96 86 l6 37 -42 0 c-37 0 -41 -2 -41 -25 0 -18 -5 -25 -20 -25 -38 0 -24 46 34 109 60 65 73 103 56 157 -9 26 -22 40 -46 50 -42 18 -51 17 -91 -2z"/>
 <path d="M7293 7076 c-45 -20 -56 -64 -51 -213 3 -117 4 -124 30 -149 20 -20 36 -27 68 -27 56 0 87 32 96 96 l7 47 -42 0 c-40 0 -41 -1 -41 -35 0 -29 -4 -35 -20 -35 -20 0 -20 5 -18 128 3 105 6 127 18 127 10 0 16 -13 18 -42 l3 -43 41 0 41 0 -6 52 c-10 85 -73 126 -144 94z"/>
 <path d="M1130 6885 l0 -195 35 0 35 0 1 68 1 67 31 -67 c30 -67 31 -68 69 -68 21 0 38 2 38 5 0 3 -18 42 -41 87 l-41 82 35 90 c19 50 38 99 42 109 6 14 1 17 -33 17 l-40 0 -24 -65 c-12 -36 -26 -65 -30 -65 -5 0 -8 29 -8 65 l0 65 -35 0 -35 0 0 -195z"/>
 <path d="M1440 6885 l0 -195 40 0 40 0 0 195 0 195 -40 0 -40 0 0 -195z"/>
 <path d="M1640 6885 l0 -195 40 0 40 0 0 195 0 195 -40 0 -40 0 0 -195z"/>
 <path d="M1880 6920 l0 -160 -30 0 c-28 0 -30 -3 -30 -35 l0 -35 100 0 100 0 0 35 c0 32 -2 35 -30 35 l-30 0 0 160 0 160 -40 0 -40 0 0 -160z"/>
 <path d="M2300 6885 l0 -195 90 0 90 0 0 35 0 35 -50 0 -50 0 0 45 0 45 40 0 c39 0 40 1 40 35 0 34 -1 35 -40 35 l-40 0 0 45 0 45 50 0 50 0 0 35 0 35 -90 0 -90 0 0 -195z"/>
 <path d="M2600 6885 l0 -195 44 0 44 0 20 78 20 77 1 -77 1 -78 35 0 35 0 0 195 0 195 -39 0 -39 0 -25 -97 -25 -98 -1 98 -1 97 -35 0 -35 0 0 -195z"/>
 <path d="M2970 6920 l0 -160 -35 0 c-33 0 -35 -2 -35 -35 l0 -35 100 0 100 0 0 35 c0 32 -2 35 -30 35 l-30 0 0 160 0 160 -35 0 -35 0 0 -160z"/>
 <path d="M3210 6885 l0 -195 70 0 c62 0 74 3 95 25 21 20 25 34 25 84 0 38 -5 65 -14 73 -11 10 -11 16 -1 33 7 11 15 55 17 98 l3 77 -37 0 -38 0 0 -59 c0 -72 -6 -91 -31 -91 -17 0 -19 8 -19 75 l0 75 -35 0 -35 0 0 -195z m116 -50 c10 -38 -3 -75 -26 -75 -17 0 -20 7 -20 50 0 43 3 50 20 50 13 0 22 -9 26 -25z"/>
 <path d="M3520 6885 l0 -195 90 0 90 0 0 35 0 35 -55 0 -55 0 0 45 0 45 45 0 c45 0 45 0 45 35 0 35 0 35 -45 35 l-45 0 0 45 0 45 55 0 55 0 0 35 0 35 -90 0 -90 0 0 -195z"/>
 <path d="M3810 6885 l0 -195 70 0 c62 0 74 3 95 25 22 21 25 33 25 100 0 67 -3 79 -25 100 -15 16 -36 25 -55 25 l-30 0 0 70 0 70 -40 0 -40 0 0 -195z m115 -70 c0 -39 -4 -50 -17 -53 -15 -3 -18 5 -18 53 0 48 3 56 18 53 13 -3 17 -14 17 -53z"/>
 <path d="M4110 6885 l0 -195 69 0 c54 0 74 4 95 21 23 18 26 28 26 80 0 33 -5 69 -10 80 -7 12 -7 26 -2 37 5 9 12 52 14 95 l5 77 -38 0 -38 0 -3 -72 c-3 -64 -5 -73 -23 -76 -19 -3 -20 2 -17 73 l4 75 -41 0 -41 0 0 -195z m115 -75 c0 -37 -3 -45 -20 -48 -18 -2 -20 3 -20 48 0 45 2 50 20 48 17 -3 20 -11 20 -48z"/>
 <path d="M4420 6885 l0 -195 90 0 90 0 0 35 0 35 -50 0 -50 0 0 45 0 45 40 0 c39 0 40 1 40 35 0 34 -1 35 -40 35 l-40 0 0 45 0 45 50 0 50 0 0 35 0 35 -90 0 -90 0 0 -195z"/>
 <path d="M4710 6885 l0 -195 48 0 48 0 21 83 21 82 1 -82 1 -83 35 0 35 0 0 195 0 195 -39 0 -39 0 -20 -77 c-42 -159 -40 -157 -41 -35 l-1 112 -35 0 -35 0 0 -195z"/>
 <path d="M5040 6885 l0 -195 90 0 90 0 0 35 0 35 -55 0 -55 0 0 45 0 45 45 0 c45 0 45 0 45 35 0 35 0 35 -45 35 l-45 0 0 45 0 45 55 0 55 0 0 35 0 35 -90 0 -90 0 0 -195z"/>
 <path d="M5640 6885 l0 -195 69 0 c54 0 74 4 95 21 23 18 26 28 26 80 0 33 -4 69 -10 79 -7 13 -5 29 5 54 8 19 15 63 15 96 l0 60 -40 0 -39 0 -3 -72 c-2 -60 -6 -73 -20 -76 -16 -3 -18 6 -18 72 l0 76 -40 0 -40 0 0 -195z m115 -75 c0 -35 -4 -45 -17 -48 -15 -3 -18 4 -18 48 0 44 3 51 18 48 13 -3 17 -13 17 -48z"/>
 <path d="M6250 6885 l0 -195 35 0 35 0 0 80 0 80 30 0 30 0 0 -80 0 -80 35 0 35 0 0 195 0 195 -35 0 -35 0 0 -80 0 -80 -30 0 -30 0 0 80 0 80 -35 0 -35 0 0 -195z"/>
 <path d="M6570 6885 l0 -195 40 0 40 0 0 195 0 195 -40 0 -40 0 0 -195z"/>
 <path d="M6770 6885 l0 -195 69 0 c58 0 72 3 95 25 24 22 26 31 26 100 0 69 -2 78 -26 100 -17 16 -39 25 -58 25 l-31 0 3 70 4 70 -41 0 -41 0 0 -195z m115 -70 c0 -42 -3 -50 -20 -53 -18 -2 -20 3 -20 53 0 50 2 55 20 53 17 -3 20 -11 20 -53z"/>
 <path d="M7550 6885 l0 -195 90 0 90 0 0 35 0 35 -55 0 -55 0 0 45 0 45 45 0 c45 0 45 0 45 35 0 35 0 35 -45 35 l-45 0 0 45 0 45 55 0 55 0 0 35 0 35 -90 0 -90 0 0 -195z"/>
 <path d="M7840 6885 l0 -195 40 0 40 0 0 159 0 160 48 3 c45 3 47 4 50 36 l3 32 -90 0 -91 0 0 -195z"/>
 <path d="M8120 6885 l0 -195 40 0 41 0 -3 160 -3 160 48 0 47 0 0 35 0 35 -85 0 -85 0 0 -195z"/>
 <path d="M774 6040 c-55 -22 -79 -93 -50 -148 8 -15 159 -171 335 -347 177 -176 321 -326 321 -334 0 -7 -28 -59 -63 -115 -136 -217 -209 -375 -252 -543 -78 -310 -71 -635 21 -924 34 -107 66 -144 128 -144 36 0 51 6 73 27 33 33 35 79 10 173 -29 104 -19 229 35 459 44 189 162 362 272 399 67 23 175 22 266 -3 104 -29 260 -107 355 -178 47 -36 355 -336 754 -736 575 -575 673 -677 662 -690 -23 -28 -201 -137 -294 -181 -109 -51 -218 -88 -321 -110 -138 -28 -457 -16 -641 25 -165 36 -372 126 -513 222 -91 63 -269 232 -332 316 -51 68 -84 92 -129 92 -64 0 -109 -58 -97 -123 8 -41 129 -190 244 -299 134 -128 265 -217 432 -296 133 -63 236 -98 375 -128 519 -109 983 -5 1402 314 112 85 153 133 153 179 0 37 -42 80 -1533 1570 -1369 1370 -1535 1533 -1562 1532 -17 0 -40 -4 -51 -9z"/>
 <path d="M2740 5814 c-39 -26 -50 -45 -50 -87 0 -29 7 -45 28 -67 31 -30 40 -32 193 -49 135 -15 276 -53 393 -107 150 -68 149 -67 190 -50 24 10 42 27 53 51 15 32 16 40 3 78 -14 40 -21 45 -120 95 -127 64 -256 105 -413 132 -148 25 -243 26 -277 4z"/>
 <path d="M6540 5820 c-342 -48 -658 -187 -908 -401 -142 -121 -334 -364 -792 -1004 -222 -310 -503 -690 -645 -872 -41 -51 -58 -83 -62 -112 -5 -36 -2 -44 30 -76 41 -41 75 -45 123 -16 32 20 172 192 339 418 50 67 93 121 97 120 11 -3 426 -504 578 -697 316 -404 624 -619 1030 -719 288 -71 565 -69 855 5 126 32 181 58 200 95 19 36 19 62 0 99 -30 57 -77 63 -201 26 -156 -46 -266 -61 -454 -60 -141 0 -195 5 -277 22 -196 42 -389 124 -554 233 -226 150 -571 564 -666 799 -78 195 -104 452 -65 640 42 201 118 354 297 598 286 392 602 603 1020 679 125 23 397 23 525 0 262 -48 514 -170 716 -346 100 -87 123 -101 162 -101 39 0 87 42 98 86 11 43 -20 89 -116 172 -226 194 -508 334 -796 393 -113 23 -424 34 -534 19z"/>
 <path d="M2260 5771 c-157 -45 -284 -101 -418 -183 -113 -69 -191 -130 -206 -163 -22 -45 -5 -100 37 -125 54 -33 83 -26 182 45 114 82 278 163 422 209 62 20 120 36 128 36 29 0 75 30 90 60 24 46 19 78 -19 116 -43 43 -83 44 -216 5z"/>
 <path d="M3658 5447 c-33 -27 -48 -63 -41 -101 4 -18 60 -86 162 -194 241 -256 254 -270 285 -278 65 -16 134 53 122 122 -7 37 -185 243 -339 392 -76 74 -88 82 -123 82 -26 0 -48 -8 -66 -23z"/>
 <path d="M4261 4786 c-31 -17 -50 -53 -51 -92 0 -31 33 -78 213 -310 66 -85 109 -102 168 -67 35 21 63 76 55 108 -6 24 -214 300 -262 348 -30 30 -82 36 -123 13z"/>
 <path d="M7838 4593 c29 -2 74 -2 100 0 26 2 2 3 -53 3 -55 0 -76 -1 -47 -3z"/>
 <path d="M7748 4583 c7 -3 16 -2 19 1 4 3 -2 6 -13 5 -11 0 -14 -3 -6 -6z"/>
 <path d="M7998 4583 c6 -2 18 -2 25 0 6 3 1 5 -13 5 -14 0 -19 -2 -12 -5z"/>
 <path d="M7713 4573 c4 -3 10 -3 14 0 3 4 0 7 -7 7 -7 0 -10 -3 -7 -7z"/>
 <path d="M8058 4573 c7 -3 16 -2 19 1 4 3 -2 6 -13 5 -11 0 -14 -3 -6 -6z"/>
 <path d="M7683 4563 c4 -3 10 -3 14 0 3 4 0 7 -7 7 -7 0 -10 -3 -7 -7z"/>
 <path d="M8098 4563 c7 -3 16 -2 19 1 4 3 -2 6 -13 5 -11 0 -14 -3 -6 -6z"/>
 <path d="M8133 4553 c4 -3 10 -3 14 0 3 4 0 7 -7 7 -7 0 -10 -3 -7 -7z"/>
 <path d="M8163 4543 c4 -3 10 -3 14 0 3 4 0 7 -7 7 -7 0 -10 -3 -7 -7z"/>
 <path d="M7609 4523 c-13 -16 -12 -17 4 -4 16 13 21 21 13 21 -2 0 -10 -8 -17 -17z"/>
 <path d="M8193 4533 c4 -3 10 -3 14 0 3 4 0 7 -7 7 -7 0 -10 -3 -7 -7z"/>
 <path d="M8223 4523 c4 -3 10 -3 14 0 3 4 0 7 -7 7 -7 0 -10 -3 -7 -7z"/>
 <path d="M8253 4513 c4 -3 10 -3 14 0 3 4 0 7 -7 7 -7 0 -10 -3 -7 -7z"/>
 <path d="M8303 4493 c4 -3 10 -3 14 0 3 4 0 7 -7 7 -7 0 -10 -3 -7 -7z"/>
 <path d="M7570 4469 c-7 -11 -10 -23 -7 -25 2 -2 9 7 15 21 14 30 7 33 -8 4z"/>
 <path d="M7551 4414 c0 -11 3 -14 6 -6 3 7 2 16 -1 19 -3 4 -6 -2 -5 -13z"/>
 <path d="M8495 4400 c3 -5 8 -10 11 -10 3 0 2 5 -1 10 -3 6 -8 10 -11 10 -3 0 -2 -4 1 -10z"/>
 <path d="M8545 4370 c3 -5 8 -10 11 -10 3 0 2 5 -1 10 -3 6 -8 10 -11 10 -3 0 -2 -4 1 -10z"/>
 <path d="M8575 4350 c3 -5 8 -10 11 -10 3 0 2 5 -1 10 -3 6 -8 10 -11 10 -3 0 -2 -4 1 -10z"/>
 <path d="M7552 4330 c0 -14 2 -19 5 -12 2 6 2 18 0 25 -3 6 -5 1 -5 -13z"/>
 <path d="M8605 4330 c3 -5 8 -10 11 -10 3 0 2 5 -1 10 -3 6 -8 10 -11 10 -3 0 -2 -4 1 -10z"/>
 <path d="M7176 4313 c-6 -14 -5 -15 5 -6 7 7 10 15 7 18 -3 3 -9 -2 -12 -12z"/>
 <path d="M7200 4320 c0 -7 3 -10 7 -7 3 4 3 10 0 14 -4 3 -7 0 -7 -7z"/>
 <path d="M8645 4300 c3 -5 8 -10 11 -10 3 0 2 5 -1 10 -3 6 -8 10 -11 10 -3 0 -2 -4 1 -10z"/>
 <path d="M7210 4290 c0 -7 3 -10 7 -7 3 4 3 10 0 14 -4 3 -7 0 -7 -7z"/>
 <path d="M7560 4290 c0 -7 3 -10 7 -7 3 4 3 10 0 14 -4 3 -7 0 -7 -7z"/>
 <path d="M7570 4260 c0 -7 3 -10 7 -7 3 4 3 10 0 14 -4 3 -7 0 -7 -7z"/>
 <path d="M8690 4266 c0 -2 8 -10 18 -17 15 -13 16 -12 3 4 -13 16 -21 21 -21 13z"/>
 <path d="M7230 4240 c0 -7 3 -10 7 -7 3 4 3 10 0 14 -4 3 -7 0 -7 -7z"/>
 <path d="M8810 4155 c35 -36 67 -65 69 -65 3 0 -24 29 -59 65 -35 36 -67 65 -69 65 -3 0 24 -29 59 -65z"/>
 <path d="M7110 4180 c0 -7 3 -10 7 -7 3 4 3 10 0 14 -4 3 -7 0 -7 -7z"/>
 <path d="M7260 4176 c0 -11 30 -66 36 -66 2 0 -3 15 -12 33 -19 36 -24 44 -24 33z"/>
 <path d="M7100 4150 c0 -7 3 -10 7 -7 3 4 3 10 0 14 -4 3 -7 0 -7 -7z"/>
 <path d="M7091 4114 c0 -11 3 -14 6 -6 3 7 2 16 -1 19 -3 4 -6 -2 -5 -13z"/>
 <path d="M7660 4080 c6 -11 13 -20 16 -20 2 0 0 9 -6 20 -6 11 -13 20 -16 20 -2 0 0 -9 6 -20z"/>
 <path d="M7081 4074 c0 -11 3 -14 6 -6 3 7 2 16 -1 19 -3 4 -6 -2 -5 -13z"/>
 <path d="M7325 4050 c3 -5 8 -10 11 -10 3 0 2 5 -1 10 -3 6 -8 10 -11 10 -3 0 -2 -4 1 -10z"/>
 <path d="M8915 4040 c10 -11 20 -20 23 -20 3 0 -3 9 -13 20 -10 11 -20 20 -23 20 -3 0 3 -9 13 -20z"/>
 <path d="M7072 4030 c0 -14 2 -19 5 -12 2 6 2 18 0 25 -3 6 -5 1 -5 -13z"/>
 <path d="M7345 4020 c3 -5 8 -10 11 -10 3 0 2 5 -1 10 -3 6 -8 10 -11 10 -3 0 -2 -4 1 -10z"/>
 <path d="M7695 4020 c3 -5 8 -10 11 -10 3 0 2 5 -1 10 -3 6 -8 10 -11 10 -3 0 -2 -4 1 -10z"/>
 <path d="M7062 3970 c0 -19 2 -27 5 -17 2 9 2 25 0 35 -3 9 -5 1 -5 -18z"/>
 <path d="M7365 3990 c3 -5 8 -10 11 -10 3 0 2 5 -1 10 -3 6 -8 10 -11 10 -3 0 -2 -4 1 -10z"/>
 <path d="M7715 3990 c3 -5 8 -10 11 -10 3 0 2 5 -1 10 -3 6 -8 10 -11 10 -3 0 -2 -4 1 -10z"/>
 <path d="M8950 3996 c0 -2 8 -10 18 -17 15 -13 16 -12 3 4 -13 16 -21 21 -21 13z"/>
 <path d="M7385 3960 c3 -5 8 -10 11 -10 3 0 2 5 -1 10 -3 6 -8 10 -11 10 -3 0 -2 -4 1 -10z"/>
 <path d="M7735 3960 c3 -5 8 -10 11 -10 3 0 2 5 -1 10 -3 6 -8 10 -11 10 -3 0 -2 -4 1 -10z"/>
 <path d="M8980 3956 c0 -2 8 -10 18 -17 15 -13 16 -12 3 4 -13 16 -21 21 -21 13z"/>
 <path d="M7400 3936 c0 -2 8 -10 18 -17 15 -13 16 -12 3 4 -13 16 -21 21 -21 13z"/>
 <path d="M7750 3936 c0 -2 8 -10 18 -17 15 -13 16 -12 3 4 -13 16 -21 21 -21 13z"/>
 <path d="M7054 3820 c0 -58 1 -81 3 -52 2 28 2 76 0 105 -2 28 -3 5 -3 -53z"/>
 <path d="M9015 3910 c3 -5 8 -10 11 -10 3 0 2 5 -1 10 -3 6 -8 10 -11 10 -3 0 -2 -4 1 -10z"/>
 <path d="M7785 3890 c3 -5 8 -10 11 -10 3 0 2 5 -1 10 -3 6 -8 10 -11 10 -3 0 -2 -4 1 -10z"/>
 <path d="M7440 3886 c0 -2 8 -10 18 -17 15 -13 16 -12 3 4 -13 16 -21 21 -21 13z"/>
 <path d="M9035 3880 c3 -5 8 -10 11 -10 3 0 2 5 -1 10 -3 6 -8 10 -11 10 -3 0 -2 -4 1 -10z"/>
 <path d="M7810 3856 c0 -2 8 -10 18 -17 15 -13 16 -12 3 4 -13 16 -21 21 -21 13z"/>
 <path d="M9055 3850 c3 -5 8 -10 11 -10 3 0 2 5 -1 10 -3 6 -8 10 -11 10 -3 0 -2 -4 1 -10z"/>
 <path d="M7570 3745 c52 -52 97 -95 100 -95 2 0 -38 43 -90 95 -52 52 -97 95 -100 95 -2 0 38 -43 90 -95z"/>
 <path d="M9075 3820 c3 -5 8 -10 11 -10 3 0 2 5 -1 10 -3 6 -8 10 -11 10 -3 0 -2 -4 1 -10z"/>
 <path d="M7870 3785 c13 -14 26 -25 28 -25 3 0 -5 11 -18 25 -13 14 -26 25 -28 25 -3 0 5 -11 18 -25z"/>
 <path d="M9095 3790 c3 -5 8 -10 11 -10 3 0 2 5 -1 10 -3 6 -8 10 -11 10 -3 0 -2 -4 1 -10z"/>
 <path d="M9130 3730 c6 -11 13 -20 16 -20 2 0 0 9 -6 20 -6 11 -13 20 -16 20 -2 0 0 -9 6 -20z"/>
 <path d="M7985 3660 c33 -33 62 -60 64 -60 3 0 -21 27 -54 60 -33 33 -62 60 -64 60 -3 0 21 -27 54 -60z"/>
 <path d="M7062 3680 c0 -19 2 -27 5 -17 2 9 2 25 0 35 -3 9 -5 1 -5 -18z"/>
 <path d="M7071 3624 c0 -11 3 -14 6 -6 3 7 2 16 -1 19 -3 4 -6 -2 -5 -13z"/>
 <path d="M7700 3626 c0 -2 8 -10 18 -17 15 -13 16 -12 3 4 -13 16 -21 21 -21 13z"/>
 <path d="M7081 3584 c0 -11 3 -14 6 -6 3 7 2 16 -1 19 -3 4 -6 -2 -5 -13z"/>
 <path d="M7750 3586 c0 -2 8 -10 18 -17 15 -13 16 -12 3 4 -13 16 -21 21 -21 13z"/>
 <path d="M8105 3550 c10 -11 20 -20 23 -20 3 0 -3 9 -13 20 -10 11 -20 20 -23 20 -3 0 3 -9 13 -20z"/>
 <path d="M7091 3550 c0 -8 4 -22 9 -30 12 -18 12 -2 0 25 -6 13 -9 15 -9 5z"/>
 <path d="M7805 3540 c3 -5 8 -10 11 -10 3 0 2 5 -1 10 -3 6 -8 10 -11 10 -3 0 -2 -4 1 -10z"/>
 <path d="M9230 3535 c0 -5 5 -17 10 -25 5 -8 10 -10 10 -5 0 6 -5 17 -10 25 -5 8 -10 11 -10 5z"/>
 <path d="M7845 3510 c3 -5 8 -10 11 -10 3 0 2 5 -1 10 -3 6 -8 10 -11 10 -3 0 -2 -4 1 -10z"/>
 <path d="M8160 3506 c0 -2 8 -10 18 -17 15 -13 16 -12 3 4 -13 16 -21 21 -21 13z"/>
 <path d="M7110 3490 c0 -7 3 -10 7 -7 3 4 3 10 0 14 -4 3 -7 0 -7 -7z"/>
 <path d="M7875 3490 c3 -5 8 -10 11 -10 3 0 2 5 -1 10 -3 6 -8 10 -11 10 -3 0 -2 -4 1 -10z"/>
 <path d="M7905 3470 c3 -5 8 -10 11 -10 3 0 2 5 -1 10 -3 6 -8 10 -11 10 -3 0 -2 -4 1 -10z"/>
 <path d="M7120 3465 c0 -5 5 -17 10 -25 5 -8 10 -10 10 -5 0 6 -5 17 -10 25 -5 8 -10 11 -10 5z"/>
 <path d="M8210 3466 c0 -2 8 -10 18 -17 15 -13 16 -12 3 4 -13 16 -21 21 -21 13z"/>
 <path d="M9260 3465 c0 -5 5 -17 10 -25 5 -8 10 -10 10 -5 0 6 -5 17 -10 25 -5 8 -10 11 -10 5z"/>
 <path d="M7935 3450 c3 -5 8 -10 11 -10 3 0 2 5 -1 10 -3 6 -8 10 -11 10 -3 0 -2 -4 1 -10z"/>
 <path d="M8265 3420 c3 -5 8 -10 11 -10 3 0 2 5 -1 10 -3 6 -8 10 -11 10 -3 0 -2 -4 1 -10z"/>
 <path d="M9280 3410 c0 -7 3 -10 7 -7 3 4 3 10 0 14 -4 3 -7 0 -7 -7z"/>
 <path d="M8035 3390 c3 -5 8 -10 11 -10 3 0 2 5 -1 10 -3 6 -8 10 -11 10 -3 0 -2 -4 1 -10z"/>
 <path d="M8305 3390 c3 -5 8 -10 11 -10 3 0 2 5 -1 10 -3 6 -8 10 -11 10 -3 0 -2 -4 1 -10z"/>
 <path d="M9290 3385 c0 -5 5 -17 10 -25 5 -8 10 -10 10 -5 0 6 -5 17 -10 25 -5 8 -10 11 -10 5z"/>
 <path d="M8335 3370 c3 -5 8 -10 11 -10 3 0 2 5 -1 10 -3 6 -8 10 -11 10 -3 0 -2 -4 1 -10z"/>
 <path d="M7180 3340 c6 -11 13 -20 16 -20 2 0 0 9 -6 20 -6 11 -13 20 -16 20 -2 0 0 -9 6 -20z"/>
 <path d="M8100 3356 c0 -3 14 -12 30 -21 17 -9 30 -13 30 -11 0 3 -13 12 -30 21 -16 9 -30 13 -30 11z"/>
 <path d="M8365 3350 c3 -5 8 -10 11 -10 3 0 2 5 -1 10 -3 6 -8 10 -11 10 -3 0 -2 -4 1 -10z"/>
 <path d="M9310 3330 c0 -7 3 -10 7 -7 3 4 3 10 0 14 -4 3 -7 0 -7 -7z"/>
 <path d="M7205 3300 c3 -5 8 -10 11 -10 3 0 2 5 -1 10 -3 6 -8 10 -11 10 -3 0 -2 -4 1 -10z"/>
 <path d="M8210 3295 c14 -8 30 -14 35 -14 6 0 -1 6 -15 14 -14 8 -29 14 -35 14 -5 0 1 -6 15 -14z"/>
 <path d="M9320 3300 c0 -7 3 -10 7 -7 3 4 3 10 0 14 -4 3 -7 0 -7 -7z"/>
 <path d="M8455 3290 c3 -5 8 -10 11 -10 3 0 2 5 -1 10 -3 6 -8 10 -11 10 -3 0 -2 -4 1 -10z"/>
 <path d="M7225 3270 c3 -5 8 -10 11 -10 3 0 2 5 -1 10 -3 6 -8 10 -11 10 -3 0 -2 -4 1 -10z"/>
 <path d="M8485 3270 c3 -5 8 -10 11 -10 3 0 2 5 -1 10 -3 6 -8 10 -11 10 -3 0 -2 -4 1 -10z"/>
 <path d="M9330 3270 c0 -7 3 -10 7 -7 3 4 3 10 0 14 -4 3 -7 0 -7 -7z"/>
 <path d="M7245 3240 c3 -5 8 -10 11 -10 3 0 2 5 -1 10 -3 6 -8 10 -11 10 -3 0 -2 -4 1 -10z"/>
 <path d="M8323 3243 c4 -3 10 -3 14 0 3 4 0 7 -7 7 -7 0 -10 -3 -7 -7z"/>
 <path d="M8535 3240 c3 -5 8 -10 11 -10 3 0 2 5 -1 10 -3 6 -8 10 -11 10 -3 0 -2 -4 1 -10z"/>
 <path d="M9341 3234 c0 -11 3 -14 6 -6 3 7 2 16 -1 19 -3 4 -6 -2 -5 -13z"/>
 <path d="M8380 3220 c8 -5 20 -10 25 -10 6 0 3 5 -5 10 -8 5 -19 10 -25 10 -5 0 -3 -5 5 -10z"/>
 <path d="M7270 3206 c0 -2 8 -10 18 -17 15 -13 16 -12 3 4 -13 16 -21 21 -21 13z"/>
 <path d="M8423 3203 c4 -3 10 -3 14 0 3 4 0 7 -7 7 -7 0 -10 -3 -7 -7z"/>
 <path d="M8605 3200 c3 -5 8 -10 11 -10 3 0 2 5 -1 10 -3 6 -8 10 -11 10 -3 0 -2 -4 1 -10z"/>
 <path d="M9350 3200 c0 -7 3 -10 7 -7 3 4 3 10 0 14 -4 3 -7 0 -7 -7z"/>
 <path d="M8473 3183 c4 -3 10 -3 14 0 3 4 0 7 -7 7 -7 0 -10 -3 -7 -7z"/>
 <path d="M8503 3173 c4 -3 10 -3 14 0 3 4 0 7 -7 7 -7 0 -10 -3 -7 -7z"/>
 <path d="M9361 3164 c0 -11 3 -14 6 -6 3 7 2 16 -1 19 -3 4 -6 -2 -5 -13z"/>
 <path d="M8533 3163 c4 -3 10 -3 14 0 3 4 0 7 -7 7 -7 0 -10 -3 -7 -7z"/>
 <path d="M7310 3157 c0 -2 15 -16 33 -33 l32 -29 -29 33 c-28 30 -36 37 -36 29z"/>
 <path d="M8563 3153 c4 -3 10 -3 14 0 3 4 0 7 -7 7 -7 0 -10 -3 -7 -7z"/>
 <path d="M8690 3155 c0 -2 18 -14 40 -25 22 -11 40 -18 40 -15 0 2 -18 14 -40 25 -22 11 -40 18 -40 15z"/>
 <path d="M8593 3143 c4 -3 10 -3 14 0 3 4 0 7 -7 7 -7 0 -10 -3 -7 -7z"/>
 <path d="M8623 3133 c4 -3 10 -3 14 0 3 4 0 7 -7 7 -7 0 -10 -3 -7 -7z"/>
 <path d="M9371 3124 c0 -11 3 -14 6 -6 3 7 2 16 -1 19 -3 4 -6 -2 -5 -13z"/>
 <path d="M8653 3123 c4 -3 10 -3 14 0 3 4 0 7 -7 7 -7 0 -10 -3 -7 -7z"/>
 <path d="M8683 3113 c4 -3 10 -3 14 0 3 4 0 7 -7 7 -7 0 -10 -3 -7 -7z"/>
 <path d="M8718 3103 c7 -3 16 -2 19 1 4 3 -2 6 -13 5 -11 0 -14 -3 -6 -6z"/>
 <path d="M8785 3100 c3 -5 8 -10 11 -10 3 0 2 5 -1 10 -3 6 -8 10 -11 10 -3 0 -2 -4 1 -10z"/>
 <path d="M8753 3093 c4 -3 10 -3 14 0 3 4 0 7 -7 7 -7 0 -10 -3 -7 -7z"/>
 <path d="M9381 3084 c0 -11 3 -14 6 -6 3 7 2 16 -1 19 -3 4 -6 -2 -5 -13z"/>
 <path d="M9391 3044 c0 -11 3 -14 6 -6 3 7 2 16 -1 19 -3 4 -6 -2 -5 -13z"/>
 <path d="M7430 3037 c0 -2 15 -16 33 -33 l32 -29 -29 33 c-28 30 -36 37 -36 29z"/>
 <path d="M9402 3000 c0 -14 2 -19 5 -12 2 6 2 18 0 25 -3 6 -5 1 -5 -13z"/>
 <path d="M7510 2966 c0 -2 8 -10 18 -17 15 -13 16 -12 3 4 -13 16 -21 21 -21 13z"/>
 <path d="M9412 2950 c0 -14 2 -19 5 -12 2 6 2 18 0 25 -3 6 -5 1 -5 -13z"/>
 <path d="M7565 2920 c3 -5 8 -10 11 -10 3 0 2 5 -1 10 -3 6 -8 10 -11 10 -3 0 -2 -4 1 -10z"/>
 <path d="M9422 2900 c0 -14 2 -19 5 -12 2 6 2 18 0 25 -3 6 -5 1 -5 -13z"/>
 <path d="M7605 2890 c3 -5 8 -10 11 -10 3 0 2 5 -1 10 -3 6 -8 10 -11 10 -3 0 -2 -4 1 -10z"/>
 <path d="M7635 2870 c3 -5 8 -10 11 -10 3 0 2 5 -1 10 -3 6 -8 10 -11 10 -3 0 -2 -4 1 -10z"/>
 <path d="M9432 2845 c0 -16 2 -22 5 -12 2 9 2 23 0 30 -3 6 -5 -1 -5 -18z"/>
 <path d="M7715 2820 c3 -5 8 -10 11 -10 3 0 2 5 -1 10 -3 6 -8 10 -11 10 -3 0 -2 -4 1 -10z"/>
 <path d="M9442 2785 c0 -16 2 -22 5 -12 2 9 2 23 0 30 -3 6 -5 -1 -5 -18z"/>
 <path d="M9452 2725 c0 -16 2 -22 5 -12 2 9 2 23 0 30 -3 6 -5 -1 -5 -18z"/>
 <path d="M7910 2720 c8 -5 20 -10 25 -10 6 0 3 5 -5 10 -8 5 -19 10 -25 10 -5 0 -3 -5 5 -10z"/>
 <path d="M7960 2700 c8 -5 20 -10 25 -10 6 0 3 5 -5 10 -8 5 -19 10 -25 10 -5 0 -3 -5 5 -10z"/>
 <path d="M8003 2683 c4 -3 10 -3 14 0 3 4 0 7 -7 7 -7 0 -10 -3 -7 -7z"/>
 <path d="M8033 2673 c4 -3 10 -3 14 0 3 4 0 7 -7 7 -7 0 -10 -3 -7 -7z"/>
 <path d="M9462 2648 c-1 -23 -8 -41 -19 -47 -10 -6 -13 -11 -7 -11 21 0 35 28 31 62 l-4 33 -1 -37z"/>
 <path d="M8063 2663 c4 -3 10 -3 14 0 3 4 0 7 -7 7 -7 0 -10 -3 -7 -7z"/>
 <path d="M8093 2653 c4 -3 10 -3 14 0 3 4 0 7 -7 7 -7 0 -10 -3 -7 -7z"/>
 <path d="M8123 2643 c4 -3 10 -3 14 0 3 4 0 7 -7 7 -7 0 -10 -3 -7 -7z"/>
 <path d="M8158 2633 c7 -3 16 -2 19 1 4 3 -2 6 -13 5 -11 0 -14 -3 -6 -6z"/>
 <path d="M8198 2623 c7 -3 16 -2 19 1 4 3 -2 6 -13 5 -11 0 -14 -3 -6 -6z"/>
 <path d="M8238 2613 c7 -3 16 -2 19 1 4 3 -2 6 -13 5 -11 0 -14 -3 -6 -6z"/>
 <path d="M8278 2603 c7 -3 16 -2 19 1 4 3 -2 6 -13 5 -11 0 -14 -3 -6 -6z"/>
 <path d="M8318 2593 c6 -2 18 -2 25 0 6 3 1 5 -13 5 -14 0 -19 -2 -12 -5z"/>
 <path d="M8368 2583 c6 -2 18 -2 25 0 6 3 1 5 -13 5 -14 0 -19 -2 -12 -5z"/>
 <path d="M9388 2583 c6 -2 18 -2 25 0 6 3 1 5 -13 5 -14 0 -19 -2 -12 -5z"/>
 <path d="M8428 2573 c6 -2 18 -2 25 0 6 3 1 5 -13 5 -14 0 -19 -2 -12 -5z"/>
 <path d="M9323 2573 c9 -2 23 -2 30 0 6 3 -1 5 -18 5 -16 0 -22 -2 -12 -5z"/>
 <path d="M8493 2563 c9 -2 25 -2 35 0 9 3 1 5 -18 5 -19 0 -27 -2 -17 -5z"/>
 <path d="M9248 2563 c12 -2 30 -2 40 0 9 3 -1 5 -23 4 -22 0 -30 -2 -17 -4z"/>
 <path d="M8568 2553 c12 -2 32 -2 45 0 12 2 2 4 -23 4 -25 0 -35 -2 -22 -4z"/>
 <path d="M9143 2553 c15 -2 37 -2 50 0 12 2 0 4 -28 4 -27 0 -38 -2 -22 -4z"/>
 <path d="M8762 2543 c59 -2 158 -2 220 0 62 1 14 3 -107 3 -121 0 -172 -2 -113 -3z"/>
 </g>

</svg>