<!DOCTYPE svg PUBLIC "-//W3C//DTD SVG 20010904//EN" "http://www.w3.org/TR/2001/REC-SVG-20010904/DTD/svg10.dtd">
<svg version="1.0" xmlns="http://www.w3.org/2000/svg" width="800px" height="235px" viewBox="0 0 8000 2350" preserveAspectRatio="xMidYMid meet">
<g id="layer101" fill="#17d059" stroke="none">
 <path d="M3983 2312 c16 -17 16 -22 1 -65 -16 -48 -14 -77 7 -77 6 0 13 9 16 20 6 23 23 27 23 6 0 -20 19 -31 32 -18 7 7 4 29 -7 69 -20 70 -30 83 -63 83 -24 0 -24 -1 -9 -18z"/>
 <path d="M5928 2324 c-11 -10 8 -59 23 -59 18 0 24 32 9 50 -13 16 -23 19 -32 9z"/>
 <path d="M4325 2310 c-8 -13 23 -149 38 -168 6 -8 13 -9 22 -2 9 8 7 28 -10 92 -21 79 -35 102 -50 78z"/>
 <path d="M6175 2300 c-8 -13 3 -30 20 -30 9 0 5 -9 -10 -25 -31 -30 -31 -40 0 -71 20 -20 29 -23 45 -14 47 25 49 93 3 130 -28 22 -48 25 -58 10z m49 -95 c-4 -8 -10 -12 -15 -9 -14 8 -10 24 6 24 9 0 12 -6 9 -15z"/>
 <path d="M1514 2286 c-3 -7 -4 -40 -2 -72 3 -58 4 -59 34 -62 25 -2 37 3 53 24 27 34 27 64 0 98 -22 29 -76 36 -85 12z m60 -42 c8 -20 -2 -54 -15 -54 -5 0 -9 16 -9 35 0 37 13 47 24 19z"/>
 <path d="M1652 2288 c-19 -19 -15 -82 6 -101 25 -23 59 -21 72 3 11 21 9 77 -4 98 -9 15 -58 16 -74 0z"/>
 <path d="M1775 2276 c-30 -46 -1 -111 47 -104 27 4 53 51 42 76 -4 9 -8 24 -8 32 -1 9 -13 16 -33 18 -25 3 -35 -2 -48 -22z"/>
 <path d="M1894 2287 c-3 -8 -4 -36 -2 -63 l3 -49 62 -3 c54 -3 63 0 73 18 16 30 9 105 -10 105 -10 0 -16 -13 -18 -42 -2 -24 -7 -43 -12 -43 -5 0 -10 19 -12 43 -4 60 -31 58 -39 -3 l-5 -45 -5 44 c-4 44 -24 66 -35 38z"/>
 <path d="M2075 2276 c-30 -46 -1 -111 47 -104 27 4 53 51 42 76 -4 9 -8 24 -8 32 -1 9 -13 16 -33 18 -25 3 -35 -2 -48 -22z"/>
 <path d="M2213 2288 c-29 -37 -21 -102 14 -115 10 -4 23 -14 30 -22 22 -29 34 1 31 75 l-3 69 -31 3 c-17 2 -35 -3 -41 -10z m37 -55 c0 -20 -3 -24 -11 -16 -7 7 -9 19 -6 27 10 24 17 19 17 -11z"/>
 <path d="M2412 2283 c-19 -37 -21 -102 -4 -123 17 -20 17 -20 39 4 20 21 21 25 8 36 -21 18 -19 53 5 68 12 7 18 17 15 22 -10 17 -54 11 -63 -7z"/>
 <path d="M2499 2284 c-7 -9 -13 -31 -13 -49 0 -42 19 -65 55 -65 32 0 49 23 49 65 0 42 -17 65 -49 65 -16 0 -35 -7 -42 -16z m51 -49 c0 -26 -14 -33 -25 -15 -9 14 1 40 15 40 5 0 10 -11 10 -25z"/>
 <path d="M2707 2293 c-4 -3 -7 -37 -7 -74 0 -70 13 -95 35 -66 7 10 19 17 27 17 35 0 52 66 28 111 -11 19 -68 28 -83 12z m53 -58 c0 -14 -4 -25 -10 -25 -5 0 -10 11 -10 25 0 14 5 25 10 25 6 0 10 -11 10 -25z"/>
 <path d="M2835 2276 c-30 -46 -1 -111 47 -104 27 4 53 51 42 76 -4 9 -8 24 -8 32 -1 9 -13 16 -33 18 -25 3 -35 -2 -48 -22z"/>
 <path d="M3045 2276 c-21 -32 -17 -121 5 -121 11 0 16 14 18 53 2 36 7 52 17 52 10 0 15 -16 17 -52 2 -39 7 -53 18 -53 19 0 27 110 9 131 -19 23 -66 17 -84 -10z"/>
 <path d="M3174 2287 c-3 -8 -4 -36 -2 -63 l3 -49 45 0 45 0 0 60 c0 47 -3 60 -15 60 -10 0 -16 -13 -18 -42 -4 -55 -20 -56 -24 -1 -3 41 -23 63 -34 35z"/>
 <path d="M3314 2287 c-3 -8 -4 -44 -2 -78 2 -49 7 -64 18 -64 12 0 15 15 15 74 0 50 -4 76 -12 78 -7 3 -16 -2 -19 -10z"/>
 <path d="M3403 2288 c-20 -25 -37 -98 -26 -109 14 -14 33 -3 33 17 0 22 17 17 23 -7 9 -34 32 -17 29 21 -5 63 -37 105 -59 78z"/>
 <path d="M3495 2276 c-30 -46 -1 -111 47 -104 27 4 53 51 42 76 -4 9 -8 24 -8 32 -1 9 -13 16 -33 18 -25 3 -35 -2 -48 -22z"/>
 <path d="M3624 2287 c-3 -8 -4 -36 -2 -63 3 -43 6 -49 27 -52 33 -5 51 15 29 32 -9 7 -18 29 -20 51 -3 39 -23 59 -34 32z"/>
 <path d="M3711 2287 c-13 -16 -5 -27 21 -27 16 0 15 -3 -8 -23 -23 -20 -25 -26 -15 -45 8 -15 21 -22 41 -22 35 0 49 19 26 35 -14 11 -15 13 -1 19 18 6 20 47 3 64 -16 16 -53 15 -67 -1z"/>
 <path d="M3824 2287 c-3 -8 -4 -44 -2 -78 2 -49 7 -64 18 -64 12 0 15 15 15 74 0 50 -4 76 -12 78 -7 3 -16 -2 -19 -10z"/>
 <path d="M3902 2283 c-19 -37 -21 -102 -4 -123 17 -20 17 -20 39 4 20 21 21 25 8 36 -21 18 -19 53 5 68 12 7 18 17 15 22 -10 17 -54 11 -63 -7z"/>
 <path d="M4185 2276 c-21 -32 -17 -121 5 -121 11 0 16 14 18 53 2 36 7 52 17 52 10 0 15 -16 17 -52 2 -39 7 -53 18 -53 19 0 27 110 9 131 -19 23 -66 17 -84 -10z"/>
 <path d="M4431 2286 c-15 -18 4 -32 37 -27 32 4 27 -13 -8 -26 -32 -12 -41 -48 -18 -71 16 -16 63 -15 77 1 14 18 5 27 -28 28 -15 0 -20 3 -11 6 45 16 65 64 38 91 -16 16 -73 15 -87 -2z"/>
 <path d="M4631 2286 c-15 -18 4 -32 34 -27 17 3 17 1 -5 -17 -22 -18 -23 -21 -7 -27 23 -9 22 -24 -2 -18 -29 8 -34 -14 -7 -32 19 -13 29 -14 45 -5 12 6 21 14 22 18 8 55 7 98 -2 109 -15 17 -63 17 -78 -1z"/>
 <path d="M4839 2284 c-7 -9 -13 -31 -13 -49 0 -42 19 -65 55 -65 32 0 49 23 49 65 0 42 -17 65 -49 65 -16 0 -35 -7 -42 -16z m51 -49 c0 -26 -14 -33 -25 -15 -9 14 1 40 15 40 5 0 10 -11 10 -25z"/>
 <path d="M4967 2294 c-4 -4 -7 -27 -7 -50 0 -24 -4 -46 -10 -49 -17 -10 20 -55 46 -55 31 0 39 16 21 44 -9 13 -17 43 -19 66 -3 41 -16 59 -31 44z"/>
 <path d="M5131 2286 c-18 -21 -10 -131 9 -131 11 0 16 14 18 53 2 36 7 52 17 52 10 0 15 -16 17 -52 2 -39 7 -53 18 -53 22 0 26 89 5 121 -18 27 -65 33 -84 10z"/>
 <path d="M5277 2282 c-21 -23 -22 -80 -1 -110 17 -25 65 -30 83 -9 14 18 4 27 -31 27 -25 0 -28 3 -28 35 0 26 4 35 16 35 14 0 14 -3 4 -15 -16 -20 -1 -39 26 -33 15 2 19 12 19 43 0 39 -1 40 -36 43 -24 2 -40 -3 -52 -16z"/>
 <path d="M5411 2274 c-11 -15 -21 -37 -21 -49 0 -12 10 -34 21 -49 16 -21 28 -26 53 -24 39 4 43 32 4 36 -48 6 -49 68 0 74 39 4 35 32 -4 36 -25 2 -37 -3 -53 -24z"/>
 <path d="M5596 2292 c-7 -12 24 -115 40 -132 20 -20 37 0 59 68 13 41 14 57 5 65 -9 9 -14 8 -24 -5 -16 -22 -30 -23 -46 -3 -14 17 -26 19 -34 7z"/>
 <path d="M5739 2284 c-7 -9 -13 -31 -13 -49 0 -18 6 -40 13 -49 17 -20 55 -21 71 -1 12 15 11 16 -37 31 -7 2 -13 10 -13 19 0 9 6 17 13 19 48 15 49 16 37 31 -16 20 -54 19 -71 -1z"/>
 <path d="M5852 2283 c-19 -37 -21 -102 -4 -123 17 -20 17 -20 39 4 20 21 21 25 8 36 -21 18 -19 53 5 68 12 7 18 17 15 22 -10 17 -54 11 -63 -7z"/>
 <path d="M6107 2294 c-4 -4 -7 -24 -7 -45 0 -30 -4 -38 -22 -43 -23 -6 -23 -6 6 -32 41 -37 58 -19 54 59 -3 56 -14 78 -31 61z"/>
 <path d="M6300 2285 c-17 -20 -5 -33 25 -27 14 2 25 0 25 -6 0 -6 -12 -12 -27 -14 -25 -3 -28 -7 -28 -38 0 -32 2 -35 34 -38 39 -4 61 12 44 29 -9 9 -8 18 4 35 14 22 14 26 -1 49 -18 28 -57 33 -76 10z"/>
 <path d="M6422 2287 c-20 -24 -24 -64 -8 -95 18 -35 40 -46 67 -31 17 8 18 13 8 25 -9 11 -9 18 -1 26 16 16 15 61 0 76 -16 16 -53 15 -66 -1z"/>
 <path d="M22 2233 c3 -17 40 -18 638 -18 558 0 635 2 635 15 0 13 -79 15 -638 18 -605 2 -638 1 -635 -15z"/>
 <path d="M6705 2230 c-3 -5 -3 -14 0 -20 4 -6 220 -10 614 -10 497 0 611 2 620 13 6 8 8 17 4 20 -11 12 -1231 8 -1238 -3z"/>
 <path d="M7227 2029 c-11 -6 -25 -26 -33 -45 -19 -45 -19 -213 0 -259 16 -37 54 -62 80 -52 19 8 21 48 4 65 -18 18 -17 201 0 234 27 50 -5 84 -51 57z"/>
 <path d="M7884 2025 c-4 -8 1 -31 11 -51 13 -28 16 -57 13 -134 -1 -54 -5 -101 -8 -104 -3 -3 -16 -3 -28 0 -20 6 -22 13 -24 123 l-3 116 -45 0 -45 0 -3 -116 c-2 -106 -4 -117 -22 -122 -18 -5 -20 2 -22 117 l-3 121 -40 0 -40 0 0 -150 0 -150 153 -2 c148 -2 155 -1 176 20 46 46 46 278 0 324 -26 26 -62 30 -70 8z"/>
 <path d="M20 1825 l0 -156 38 3 c30 2 38 7 40 27 l4 24 12 -24 c8 -18 21 -25 49 -27 49 -4 53 10 24 82 -23 57 -24 61 -9 107 9 27 18 49 22 49 3 0 15 -53 25 -117 l20 -118 46 -3 c29 -2 50 2 56 10 14 17 56 265 49 284 -4 11 -17 14 -43 12 -33 -3 -38 -7 -41 -30 -2 -16 -7 -28 -12 -28 -5 0 -10 12 -12 28 -3 27 -3 27 -83 27 -74 0 -80 -2 -91 -24 l-12 -24 -4 24 c-2 20 -10 25 -40 27 l-38 3 0 -156z"/>
 <path d="M414 1967 c-2 -7 -3 -76 -2 -152 l3 -140 40 0 40 0 3 121 3 122 34 4 34 4 3 -126 3 -125 40 0 40 0 0 150 0 150 -118 3 c-90 2 -119 -1 -123 -11z"/>
 <path d="M685 1968 c-3 -8 -4 -77 -3 -153 l3 -140 33 -3 c29 -3 34 0 44 30 l12 33 6 -30 c5 -27 9 -30 40 -30 l35 0 0 150 0 150 -30 0 c-24 0 -33 -7 -47 -34 l-17 -33 -3 33 c-3 30 -7 34 -36 37 -20 2 -34 -2 -37 -10z"/>
 <path d="M907 1962 c-26 -28 -37 -70 -37 -138 0 -73 18 -127 48 -143 34 -18 97 -13 126 10 22 17 27 28 24 58 -3 35 -4 36 -43 36 -33 0 -40 -4 -46 -25 -7 -23 -7 -23 -8 7 -1 31 0 32 47 35 l47 3 4 55 c4 53 4 51 25 -65 l21 -120 46 -3 c29 -2 50 2 56 10 14 17 56 265 49 284 -4 11 -17 14 -43 12 -33 -3 -38 -7 -41 -30 -2 -16 -7 -28 -12 -28 -5 0 -10 12 -12 28 l-3 27 -116 2 c-99 2 -119 0 -132 -15z"/>
 <path d="M1375 1968 c-3 -8 -4 -77 -3 -153 l3 -140 40 0 40 0 0 150 0 150 -38 3 c-24 2 -39 -1 -42 -10z"/>
 <path d="M1485 1968 c-3 -8 -4 -77 -3 -153 l3 -140 33 -3 c29 -3 34 0 44 30 l12 33 6 -30 c5 -27 9 -30 40 -30 l35 0 0 150 0 150 -30 0 c-24 0 -33 -7 -47 -34 l-17 -33 -3 33 c-3 30 -7 34 -36 37 -20 2 -34 -2 -37 -10z"/>
 <path d="M1702 1958 c-11 -13 -24 -35 -27 -51 -6 -24 -4 -28 25 -38 l31 -11 -26 -28 c-39 -41 -43 -89 -10 -128 22 -27 34 -32 70 -32 26 0 47 6 55 15 11 13 14 13 24 0 9 -12 52 -14 271 -12 l260 2 5 120 4 120 6 -120 5 -120 210 0 210 0 0 25 c0 21 -5 26 -32 28 -27 3 -33 8 -33 27 0 17 6 25 23 27 17 2 22 10 22 33 0 23 -5 31 -22 33 -19 3 -23 10 -23 37 0 31 3 34 33 37 27 2 32 7 32 28 0 24 -2 25 -75 25 l-75 0 -3 -121 c-2 -115 -4 -122 -22 -117 -18 5 -20 16 -22 122 l-3 116 -45 0 -45 0 -3 -117 c-2 -91 -6 -118 -16 -118 -10 0 -15 24 -18 96 -4 91 -6 98 -32 120 -37 33 -104 33 -142 1 -25 -21 -27 -30 -32 -120 -3 -72 -8 -97 -18 -97 -10 0 -14 28 -16 118 l-3 117 -45 0 -45 0 -3 -116 c-2 -106 -4 -117 -22 -122 -18 -5 -20 2 -22 117 l-3 121 -40 0 -40 0 -3 -121 c-2 -115 -4 -122 -22 -117 -18 5 -20 16 -22 122 l-3 116 -45 0 -45 0 -3 -117 c-2 -91 -6 -118 -16 -118 -8 0 -16 9 -19 20 -4 14 -14 20 -33 20 l-28 0 26 28 c55 58 61 95 22 141 -21 26 -33 31 -68 31 -31 0 -48 -6 -64 -22z"/>
 <path d="M2933 1956 c-27 -24 -28 -26 -28 -131 0 -105 1 -107 28 -131 20 -17 40 -24 72 -24 32 0 52 7 72 24 27 24 28 26 28 131 0 105 -1 107 -28 131 -20 17 -40 24 -72 24 -32 0 -52 -7 -72 -24z m74 -179 c-2 -23 -3 -1 -3 48 0 50 1 68 3 42 2 -26 2 -67 0 -90z"/>
 <path d="M3125 1968 c-3 -8 -4 -77 -3 -153 l3 -140 70 0 c68 0 70 1 70 25 0 20 -6 26 -27 28 -22 3 -28 9 -28 27 0 18 6 24 28 27 23 3 27 8 27 33 0 25 -4 31 -27 33 -26 3 -27 6 -30 65 l-3 62 -38 3 c-24 2 -39 -1 -42 -10z"/>
 <path d="M3375 1968 c-3 -8 -4 -77 -3 -153 l3 -140 40 0 40 0 0 150 0 150 -38 3 c-24 2 -39 -1 -42 -10z"/>
 <path d="M3485 1968 c-3 -8 -4 -77 -3 -153 l3 -140 33 -3 c29 -3 34 0 44 30 l12 33 6 -30 c5 -27 9 -30 40 -30 l35 0 0 150 0 150 -30 0 c-24 0 -33 -7 -47 -34 l-17 -33 -3 33 c-3 30 -7 34 -36 37 -20 2 -34 -2 -37 -10z"/>
 <path d="M3684 1967 c-2 -7 -3 -76 -2 -152 l3 -140 64 -3 c52 -2 70 1 92 17 l27 20 5 -20 c5 -17 12 -20 49 -17 l43 3 5 120 6 120 4 -120 5 -120 45 0 c42 0 45 2 48 27 l3 28 26 -30 c20 -25 32 -30 68 -30 35 0 48 5 64 25 l20 26 3 -23 c3 -23 5 -23 164 -25 150 -2 164 -1 188 18 14 11 27 28 27 37 1 9 4 1 8 -18 6 -33 8 -35 46 -35 l40 0 5 145 5 145 25 -145 25 -145 46 -3 c29 -2 50 2 56 10 14 17 56 265 49 284 -4 11 -17 14 -43 12 -33 -3 -38 -7 -41 -30 -2 -16 -7 -28 -12 -28 -5 0 -10 12 -12 28 l-3 27 -140 0 -140 0 -12 -35 -11 -35 -4 35 c-3 34 -5 35 -43 35 l-40 0 -3 -121 c-2 -115 -4 -122 -22 -117 -18 5 -20 16 -22 122 l-3 116 -45 0 -45 0 -3 -116 c-2 -105 -4 -117 -22 -122 -14 -3 -20 1 -22 17 -2 14 -12 22 -32 26 l-28 5 22 20 c27 25 50 67 50 94 0 11 -12 33 -26 50 -21 26 -33 31 -68 31 -44 0 -73 -21 -91 -65 -8 -19 -9 -19 -12 2 -11 58 -113 84 -167 42 -14 -11 -26 -28 -27 -37 0 -13 -2 -12 -9 4 -15 38 -50 54 -118 54 -42 0 -64 -4 -68 -13z m965 -104 c0 -60 -3 -81 -9 -67 -5 12 -13 25 -18 28 -9 5 14 126 24 126 2 0 4 -39 3 -87z m-872 -86 c-2 -23 -3 -1 -3 48 0 50 1 68 3 42 2 -26 2 -67 0 -90z m340 54 c-14 -14 -27 -33 -30 -41 -3 -8 -6 8 -6 37 l-1 52 31 -11 30 -10 -24 -27z m433 -71 c0 -16 -4 -30 -10 -30 -5 0 -10 14 -10 30 0 17 5 30 10 30 6 0 10 -13 10 -30z"/>
 <path d="M4965 1967 c-3 -7 -4 -76 -3 -152 l3 -140 40 0 40 0 3 122 3 122 32 3 c27 2 32 7 32 28 0 24 -3 25 -73 28 -53 2 -74 -1 -77 -11z"/>
 <path d="M5237 1974 c-4 -4 -7 -58 -7 -120 0 -105 -1 -112 -21 -117 -16 -4 -20 -12 -17 -34 l3 -28 165 0 165 0 0 25 c0 21 -5 26 -32 28 -27 3 -33 8 -33 27 0 17 6 25 23 27 17 2 22 10 22 33 0 23 -5 31 -22 33 -19 3 -23 10 -23 37 0 31 3 34 33 37 27 2 32 7 32 28 0 24 -2 25 -75 25 l-75 0 -3 -121 c-2 -115 -4 -122 -22 -117 -18 5 -20 16 -22 122 l-3 116 -40 3 c-23 2 -44 0 -48 -4z"/>
 <path d="M5567 1969 c-44 -26 -63 -170 -33 -244 17 -41 42 -55 96 -55 57 0 92 35 88 88 -3 36 -4 37 -43 37 -36 0 -40 -3 -46 -30 -4 -17 -7 9 -7 60 0 51 3 77 7 60 6 -27 10 -30 46 -30 39 0 40 1 43 37 5 54 -31 88 -90 88 -24 0 -51 -5 -61 -11z"/>
 <path d="M5734 1967 c-2 -7 -3 -76 -2 -152 l3 -140 95 0 95 0 0 150 0 150 -93 2 c-67 2 -94 -1 -98 -10z"/>
 <path d="M5955 1968 c-3 -8 -4 -77 -3 -153 l3 -140 33 -3 c29 -3 34 0 44 30 l12 33 6 -30 c5 -27 9 -30 40 -30 33 0 35 2 41 40 3 22 7 30 8 18 3 -59 114 -85 168 -39 27 24 28 26 28 131 0 105 -1 107 -28 131 -54 46 -165 20 -168 -39 -1 -12 -5 -4 -8 18 -5 36 -9 40 -36 40 -24 0 -33 -7 -47 -34 l-17 -33 -3 33 c-3 30 -7 34 -36 37 -20 2 -34 -2 -37 -10z m282 -191 c-2 -23 -3 -1 -3 48 0 50 1 68 3 42 2 -26 2 -67 0 -90z"/>
 <path d="M6354 1967 c-2 -7 -3 -76 -2 -152 l3 -140 40 0 40 0 3 121 3 122 32 4 32 3 0 -103 c0 -101 1 -104 28 -128 54 -46 166 -20 167 39 1 18 3 16 15 -10 17 -39 42 -53 93 -53 58 0 94 32 90 79 -3 35 -4 36 -43 36 -33 0 -40 -4 -46 -25 -7 -23 -7 -23 -8 7 -1 31 0 32 47 35 l47 3 0 85 0 85 -69 3 c-76 2 -91 -5 -112 -53 -11 -25 -13 -27 -14 -8 -1 56 -110 85 -163 43 -25 -20 -25 -20 -30 0 -5 18 -14 20 -76 20 -50 0 -73 -4 -77 -13z m253 -190 c-2 -23 -3 -1 -3 48 0 50 1 68 3 42 2 -26 2 -67 0 -90z"/>
 <path d="M6957 1974 c-4 -4 -7 -35 -7 -68 0 -36 -10 -93 -25 -140 -13 -43 -22 -83 -19 -87 7 -13 68 -11 81 2 8 8 13 8 17 0 10 -15 76 -14 82 2 2 7 -3 35 -12 62 -9 28 -19 91 -23 140 l-6 90 -40 3 c-23 2 -44 0 -48 -4z"/>
 <path d="M7315 1968 c-3 -8 -4 -77 -3 -153 l3 -140 40 0 c35 0 40 3 43 24 l4 24 12 -24 c11 -22 17 -24 96 -24 l85 0 0 150 0 150 -85 0 c-79 0 -85 -2 -96 -24 l-12 -24 -4 24 c-2 20 -10 25 -41 27 -24 2 -39 -1 -42 -10z m193 -200 l-3 -63 -21 55 -21 54 21 65 21 65 3 -57 c2 -31 2 -85 0 -119z"/>
 <path d="M3926 1461 c-6 -9 -25 -175 -26 -217 0 -17 -8 -23 -36 -28 -19 -4 -41 -9 -49 -12 -9 -4 -34 31 -75 105 -34 61 -63 111 -65 111 -20 0 -135 -63 -135 -73 0 -8 16 -58 35 -111 19 -53 35 -102 35 -109 0 -10 -61 -57 -74 -57 -2 0 -48 34 -102 76 l-99 75 -52 -57 -52 -58 83 -90 83 -91 -26 -37 c-14 -21 -30 -37 -36 -38 -5 0 -60 15 -122 34 -82 25 -115 31 -121 22 -17 -20 -44 -116 -38 -132 3 -8 50 -36 103 -61 54 -25 99 -47 101 -49 2 -1 0 -22 -3 -47 l-7 -45 -121 -13 -122 -14 0 -45 0 -45 155 0 155 0 7 70 c11 95 50 217 95 295 155 265 490 391 788 296 108 -34 197 -88 275 -166 110 -111 171 -239 194 -405 l12 -90 154 0 155 0 0 45 0 45 -120 13 c-66 7 -120 14 -121 15 -1 1 -5 21 -9 45 l-7 43 105 49 c58 27 108 54 112 59 8 15 -52 141 -67 141 -7 0 -61 -16 -120 -34 l-107 -34 -25 39 c-14 21 -26 41 -26 45 0 3 36 47 80 97 l80 91 -52 53 c-29 29 -55 53 -58 53 -3 0 -48 -34 -99 -76 -99 -82 -98 -81 -155 -39 -18 14 -17 18 18 131 42 134 43 129 -46 162 -43 16 -59 18 -66 9 -5 -7 -31 -55 -57 -107 -26 -52 -48 -96 -50 -98 -1 -1 -25 2 -53 8 l-51 11 -5 57 c-4 31 -10 86 -14 122 l-7 65 -72 3 c-39 2 -74 -1 -77 -7z"/>
 <path d="M3915 1093 c-284 -38 -535 -306 -539 -577 l-1 -61 38 0 37 0 0 -227 0 -228 95 0 95 0 0 48 1 47 25 -48 24 -47 100 0 c116 0 112 -19 32 152 l-50 106 58 119 58 118 1 -163 c1 -134 4 -164 16 -168 13 -5 13 -8 0 -27 -23 -33 -19 -90 8 -115 34 -32 111 -31 140 2 l21 24 19 -24 c15 -20 27 -24 72 -24 46 0 56 4 74 26 l21 27 0 -27 0 -26 185 0 186 0 -3 88 -3 87 -42 3 -43 3 -2 167 c-3 160 -4 167 -24 170 -16 2 -23 15 -31 57 -47 222 -253 388 -483 387 -148 0 -252 -45 -356 -154 -69 -72 -108 -141 -128 -226 -10 -46 -17 -58 -34 -60 -27 -4 -28 11 -7 88 40 150 145 280 276 344 94 44 153 58 259 57 265 -1 477 -183 526 -451 21 -113 20 -110 47 -110 41 0 48 19 37 99 -21 146 -75 254 -181 360 -36 36 -90 81 -121 99 -119 71 -270 103 -403 85z m215 -229 c118 -35 230 -148 265 -267 20 -69 19 -75 -12 -79 l-28 -3 -3 -167 -2 -167 -43 -3 c-37 -3 -42 -6 -47 -32 -5 -28 -5 -28 -23 -8 -17 19 -17 20 3 25 20 5 20 11 18 179 l-3 173 -280 0 -280 0 -27 -50 -27 -50 -3 50 c-3 45 -6 50 -29 55 l-26 5 14 55 c29 114 102 203 207 256 112 55 208 63 326 28z m-340 -408 c0 -2 -21 -47 -46 -100 l-47 -96 44 -97 c24 -53 46 -100 47 -104 2 -5 -8 -9 -22 -9 -23 0 -31 12 -74 103 l-48 102 44 97 c25 53 52 99 61 101 23 7 41 8 41 3z m-220 -201 l0 -195 -25 0 -25 0 0 195 0 195 25 0 25 0 0 -195z m440 90 l0 -105 -25 0 -25 0 0 105 0 105 25 0 25 0 0 -105z m180 0 l0 -105 -25 0 -25 0 0 105 0 105 25 0 25 0 0 -105z m282 -67 l3 -173 43 -3 c34 -3 42 -7 42 -23 0 -18 -8 -19 -115 -19 -107 0 -115 1 -115 19 0 16 8 20 43 23 l42 3 3 173 2 172 25 0 25 0 2 -172z m-380 -142 l-16 -23 -17 21 c-16 19 -16 21 -1 27 9 3 24 4 34 1 16 -4 16 -5 0 -26z"/>
 </g>

</svg>