<!DOCTYPE svg PUBLIC "-//W3C//DTD SVG 20010904//EN" "http://www.w3.org/TR/2001/REC-SVG-20010904/DTD/svg10.dtd">
<svg version="1.0" xmlns="http://www.w3.org/2000/svg" width="143px" height="142px" viewBox="0 0 1430 1420" preserveAspectRatio="xMidYMid meet">
<g id="layer101" fill="#fbcfcf" stroke="none">
 <path d="M237 1399 c-81 -26 -131 -64 -175 -134 -49 -77 -66 -139 -60 -218 14 -174 160 -307 338 -307 178 0 324 133 338 307 6 77 -10 140 -56 213 -43 70 -101 114 -183 140 -78 24 -126 24 -202 -1z"/>
 <path d="M1016 1409 c-54 -13 -139 -63 -174 -103 -16 -19 -42 -60 -58 -92 -23 -48 -28 -71 -28 -129 1 -128 50 -224 148 -287 76 -49 123 -61 216 -56 123 8 222 75 280 191 26 52 30 71 30 141 0 88 -14 130 -69 210 -69 100 -219 154 -345 125z"/>
 <path d="M231 659 c-53 -17 -75 -32 -126 -82 -141 -142 -141 -332 0 -472 140 -141 330 -141 472 0 52 52 64 72 82 129 26 86 26 126 0 212 -18 57 -31 77 -83 130 -53 52 -73 65 -130 83 -84 26 -132 26 -215 0z"/>
 <path d="M998 667 c-160 -46 -273 -228 -238 -384 18 -83 52 -144 107 -193 76 -68 123 -85 228 -85 82 0 96 3 151 32 116 60 184 173 184 303 0 182 -131 323 -312 335 -45 3 -91 0 -120 -8z"/>
 </g>
<g id="layer102" fill="#cdeadb" stroke="none">
 <path d="M260 1404 c-109 -30 -181 -91 -227 -192 -119 -258 129 -539 403 -457 76 22 142 71 184 136 69 107 75 225 19 338 -70 139 -235 215 -379 175z"/>
 <path d="M1016 1409 c-54 -13 -139 -63 -174 -103 -16 -19 -42 -60 -58 -92 -23 -48 -28 -71 -28 -129 1 -128 50 -224 148 -287 76 -49 123 -61 216 -56 123 8 222 75 280 191 26 52 30 71 30 141 0 88 -14 130 -69 210 -69 100 -219 154 -345 125z"/>
 <path d="M231 659 c-53 -17 -75 -32 -126 -82 -141 -142 -141 -332 0 -472 140 -141 330 -141 472 0 52 52 64 72 82 129 26 86 26 126 0 212 -18 57 -31 77 -83 130 -53 52 -73 65 -130 83 -84 26 -132 26 -215 0z"/>
 <path d="M998 667 c-160 -46 -273 -228 -238 -384 18 -83 52 -144 107 -193 76 -68 123 -85 228 -85 82 0 96 3 151 32 116 60 184 173 184 303 0 182 -131 323 -312 335 -45 3 -91 0 -120 -8z"/>
 </g>
<g id="layer103" fill="#8ed0ad" stroke="none">
 <path d="M260 1404 c-109 -30 -181 -91 -227 -192 -119 -258 129 -539 403 -457 76 22 142 71 184 136 69 107 75 225 19 338 -70 139 -235 215 -379 175z"/>
 <path d="M998 1400 c-202 -62 -299 -290 -204 -478 52 -103 178 -182 289 -182 64 0 145 21 191 49 46 29 103 93 123 139 8 20 19 44 23 52 4 8 8 49 9 91 2 62 -2 86 -23 132 -72 163 -246 247 -408 197z"/>
 <path d="M231 659 c-53 -17 -75 -32 -126 -82 -141 -142 -141 -332 0 -472 140 -141 330 -141 472 0 52 52 64 72 82 129 26 86 26 126 0 212 -18 57 -31 77 -83 130 -53 52 -73 65 -130 83 -84 26 -132 26 -215 0z"/>
 <path d="M995 661 c-169 -57 -260 -205 -233 -377 20 -127 97 -216 231 -265 150 -55 323 19 404 173 25 47 28 63 28 148 0 85 -3 101 -28 148 -80 152 -250 225 -402 173z"/>
 </g>
<g id="layer104" fill="#ee4343" stroke="none">
 <path d="M260 1404 c-109 -30 -181 -91 -227 -192 -119 -258 129 -539 403 -457 76 22 142 71 184 136 69 107 75 225 19 338 -70 139 -235 215 -379 175z"/>
 <path d="M998 1400 c-202 -62 -299 -290 -204 -478 52 -103 178 -182 289 -182 64 0 145 21 191 49 46 29 103 93 123 139 8 20 19 44 23 52 4 8 8 49 9 91 2 62 -2 86 -23 132 -72 163 -246 247 -408 197z"/>
 <path d="M231 659 c-53 -17 -75 -32 -126 -82 -141 -142 -141 -332 0 -472 140 -141 330 -141 472 0 52 52 64 72 82 129 26 86 26 126 0 212 -18 57 -31 77 -83 130 -53 52 -73 65 -130 83 -84 26 -132 26 -215 0z"/>
 <path d="M1009 665 c-57 -17 -112 -51 -157 -96 -51 -52 -66 -82 -86 -166 -12 -55 -12 -71 0 -125 8 -35 21 -77 29 -93 29 -63 138 -150 211 -170 41 -11 154 -14 160 -3 3 4 14 8 25 8 27 0 140 73 165 107 45 63 71 145 70 218 -3 121 -54 213 -151 274 -81 51 -188 69 -266 46z"/>
 </g>
<g id="layer105" fill="#70c397" stroke="none">
 <path d="M323 1413 c9 -2 25 -2 35 0 9 3 1 5 -18 5 -19 0 -27 -2 -17 -5z"/>
 <path d="M998 1400 c-202 -62 -299 -290 -204 -478 52 -103 178 -182 289 -182 64 0 145 21 191 49 46 29 103 93 123 139 8 20 19 44 23 52 4 8 8 49 9 91 2 62 -2 86 -23 132 -72 163 -246 247 -408 197z"/>
 <path d="M3 1075 c0 -33 2 -45 4 -27 2 18 2 45 0 60 -2 15 -4 0 -4 -33z"/>
 <path d="M231 659 c-53 -17 -75 -32 -126 -82 -141 -142 -141 -332 0 -472 140 -141 330 -141 472 0 52 52 64 72 82 129 26 86 26 126 0 212 -18 57 -31 77 -83 130 -53 52 -73 65 -130 83 -84 26 -132 26 -215 0z"/>
 <path d="M1009 665 c-57 -17 -112 -51 -157 -96 -51 -52 -66 -82 -86 -166 -12 -55 -12 -71 0 -125 8 -35 21 -77 29 -93 29 -63 138 -150 211 -170 41 -11 154 -14 160 -3 3 4 14 8 25 8 27 0 140 73 165 107 45 63 71 145 70 218 -3 121 -54 213 -151 274 -81 51 -188 69 -266 46z"/>
 </g>
<g id="layer106" fill="#41b4e7" stroke="none">
 <path d="M984 1396 c-146 -46 -249 -217 -224 -371 19 -116 107 -224 218 -265 97 -37 234 -18 314 43 56 43 105 108 120 160 19 69 15 194 -9 249 -31 68 -98 136 -168 169 -50 24 -72 29 -135 28 -41 0 -94 -6 -116 -13z"/>
 <path d="M231 659 c-53 -17 -76 -32 -126 -82 -74 -75 -95 -126 -95 -237 0 -110 21 -162 94 -236 74 -73 126 -94 236 -94 111 0 162 21 237 95 51 52 64 72 82 129 26 86 26 126 0 212 -18 57 -31 77 -83 130 -53 52 -73 65 -130 83 -84 26 -132 26 -215 0z"/>
 </g>
<g id="layer107" fill="#9e9e9e" stroke="none">
 <path d="M984 1396 c-146 -46 -249 -217 -224 -371 19 -116 107 -224 218 -265 97 -37 234 -18 314 43 56 43 105 108 120 160 19 69 15 194 -9 249 -31 68 -98 136 -168 169 -50 24 -72 29 -135 28 -41 0 -94 -6 -116 -13z"/>
 </g>

</svg>